<svg xmlns="http://www.w3.org/2000/svg" width="15" height="30" viewBox="0 0 15 30">
  <path fill-rule="evenodd" d="M828.996555,994.999823 L829.017973,982.039074 L825.779587,982.039074 C825.358736,982.039074 825.017157,981.68524 825.015536,981.247649 L825.000006,977.069862 C824.998384,976.629875 825.340987,976.272314 825.764142,976.272314 L828.996641,976.272314 L828.996641,972.235511 C828.996641,967.550839 831.7483,965 835.767462,965 L839.065495,965 C839.487455,965 839.829631,965.355698 839.829631,965.794531 L839.829631,969.317262 C839.829631,969.755918 839.487711,970.111527 839.065921,970.111793 L837.041962,970.112769 C834.856216,970.112769 834.432975,971.192728 834.432975,972.77762 L834.432975,976.272403 L839.235815,976.272403 C839.693443,976.272403 840.048505,976.687901 839.994575,977.16045 L839.518345,981.338237 C839.472778,981.738031 839.146729,982.039252 838.759584,982.039252 L834.454393,982.039252 L834.432975,995 L828.996555,994.999823 Z" transform="translate(-825 -965)"/>
</svg>
