<svg xmlns="http://www.w3.org/2000/svg" width="30" height="30" viewBox="0 0 30 30">
  <path d="M772.285714,965 C768.271671,965 765,968.271671 765,972.285705 L765,987.714287 C765,991.728329 768.271671,995 772.285714,995 L787.714286,995 C791.728329,995 795,991.728329 795,987.714287 L795,972.285705 C795,968.271671 791.728329,965 787.714286,965 L772.285714,965 Z M772.285714,967.571428 L787.714286,967.571428 C790.348243,967.571428 792.428571,969.651756 792.428571,972.285705 L792.428571,987.714287 C792.428571,990.348244 790.348243,992.428572 787.714286,992.428572 L772.285714,992.428572 C769.651757,992.428572 767.571429,990.348244 767.571429,987.714287 L767.571429,972.285705 C767.571429,969.651756 769.651757,967.571428 772.285714,967.571428 Z M788.571429,970.142848 C787.624629,970.142848 786.857143,970.910333 786.857143,971.857133 C786.857143,972.80389 787.624629,973.571419 788.571429,973.571419 C789.518186,973.571419 790.285714,972.80389 790.285714,971.857133 C790.285714,970.910333 789.518186,970.142848 788.571429,970.142848 Z M780,972.714276 C775.991443,972.714276 772.714286,975.991433 772.714286,980.000002 C772.714286,984.008559 775.991443,987.285715 780,987.285715 C784.008557,987.285715 787.285714,984.008559 787.285714,980.000002 C787.285714,975.991433 784.008557,972.714276 780,972.714276 Z M780,975.285704 C782.618871,975.285704 784.714286,977.381161 784.714286,980.000002 C784.714286,982.61883 782.618871,984.714287 780,984.714287 C777.381129,984.714287 775.285714,982.61883 775.285714,980.000002 C775.285714,977.381161 777.381129,975.285704 780,975.285704 Z" transform="translate(-765 -965)"/>
</svg>
