<svg xmlns="http://www.w3.org/2000/svg" width="29" height="29" viewBox="0 0 29 29">
  <path d="M894.775667,969.2149 C892.072987,966.507799 888.394411,964.990005 884.560417,965.00005 C876.603542,965.00005 870.120833,971.447423 870.120833,979.368311 C870.114803,981.890447 870.779323,984.369258 872.046917,986.553043 L870,994 L877.656,991.998427 C879.772986,993.146434 882.144868,993.748921 884.555583,993.751006 L884.561625,993.751006 C892.519708,993.751006 898.995167,987.304835 899,979.377934 C899,975.539581 897.49925,971.930976 894.775667,969.213697 L894.775667,969.2149 Z M884.560417,991.322415 L884.555583,991.322415 C882.40663,991.322401 880.297116,990.747869 878.447458,989.658849 L878.008833,989.400232 L873.463083,990.585057 L874.67625,986.176545 L874.3935,985.725469 C873.190724,983.821496 872.553952,981.617471 872.556833,979.368311 C872.556833,972.786216 877.942375,967.429843 884.56525,967.429843 C887.74891,967.421924 890.803407,968.682378 893.04775,970.93019 C895.303084,973.167168 896.566865,976.208609 896.557958,979.377934 C896.557958,985.966043 891.172417,991.322415 884.559208,991.322415 L884.560417,991.322415 Z M891.139792,982.375481 C890.780917,982.197457 889.005875,981.328986 888.676,981.211105 C888.346125,981.088412 888.104458,981.031877 887.864,981.389129 C887.622333,981.74999 886.933583,982.55952 886.722125,982.798891 C886.514292,983.03345 886.301625,983.067131 885.94275,982.887903 C885.58025,982.709879 884.419042,982.328569 883.040333,981.102847 C881.968542,980.152581 881.242333,978.97377 881.0345,978.616518 C880.821833,978.255658 881.010333,978.063199 881.190375,977.882768 C881.354708,977.72399 881.552875,977.465373 881.732917,977.253668 C881.91175,977.047978 881.974583,976.897619 882.095417,976.657046 C882.213833,976.417675 882.153417,976.20597 882.062792,976.027946 C881.973375,975.849921 881.252,974.078096 880.949917,973.358781 C880.656292,972.658712 880.359042,972.757347 880.137917,972.744115 C879.930083,972.734492 879.689625,972.734492 879.449167,972.734492 C879.2075,972.734492 878.816,972.823505 878.484917,973.185568 C878.155042,973.54282 877.224625,974.412494 877.224625,976.178304 C877.224625,977.945318 878.517542,979.654593 878.698792,979.895167 C878.877625,980.129726 881.242333,983.756374 884.861292,985.312886 C885.721625,985.683369 886.391042,985.904697 886.915458,986.06949 C887.779417,986.341338 888.56725,986.304049 889.19075,986.213834 C889.884333,986.11159 891.323458,985.345363 891.625542,984.504558 C891.924,983.668565 891.924,982.949249 891.833375,982.798891 C891.743958,982.648532 891.5035,982.558317 891.139792,982.375481 Z" transform="translate(-870 -965)"/>
</svg>
